<?xml version="1.0" encoding="UTF-8"?>
<!DOCTYPE svg PUBLIC "-//W3C//DTD SVG 1.1//EN" "http://www.w3.org/Graphics/SVG/1.1/DTD/svg11.dtd">
<svg xmlns="http://www.w3.org/2000/svg" version="1.1" width="800px" height="640px" style="shape-rendering:geometricPrecision; text-rendering:geometricPrecision; image-rendering:optimizeQuality; fill-rule:evenodd; clip-rule:evenodd" xmlns:xlink="http://www.w3.org/1999/xlink">
<g><path style="opacity:1" fill="#fefefe" d="M -0.5,-0.5 C 266.167,-0.5 532.833,-0.5 799.5,-0.5C 799.5,212.833 799.5,426.167 799.5,639.5C 532.833,639.5 266.167,639.5 -0.5,639.5C -0.5,426.167 -0.5,212.833 -0.5,-0.5 Z"/></g>
<g><path style="opacity:1" fill="#701212" d="M 389.5,40.5 C 392.85,40.335 396.183,40.5017 399.5,41C 409.028,54.3623 418.362,67.8623 427.5,81.5C 437.149,82.3321 446.816,82.8321 456.5,83C 467.097,85.834 469.097,91.5006 462.5,100C 459.911,101.197 457.244,102.197 454.5,103C 445.5,103.333 436.5,103.667 427.5,104C 418.295,116.908 409.462,130.075 401,143.5C 397.27,144.46 393.437,144.793 389.5,144.5C 393.343,130.794 397.343,117.128 401.5,103.5C 389.465,102.773 377.465,101.939 365.5,101C 362.5,105.333 359.5,109.667 356.5,114C 353.854,114.497 351.187,114.664 348.5,114.5C 349.34,108.141 350.34,101.808 351.5,95.5C 349.365,95.853 348.032,95.0197 347.5,93C 349.115,91.3627 350.449,89.5294 351.5,87.5C 350.068,82.2384 349.068,76.9051 348.5,71.5C 351.187,71.3359 353.854,71.5026 356.5,72C 359.5,76.3333 362.5,80.6667 365.5,85C 377.452,83.9141 389.452,83.0807 401.5,82.5C 397.708,68.4561 393.708,54.4561 389.5,40.5 Z"/></g>
<g><path style="opacity:1" fill="#bc282b" d="M 309.5,95.5 C 310.75,95.5774 311.583,96.244 312,97.5C 313.5,102 315,106.5 316.5,111C 316.355,111.772 316.022,112.439 315.5,113C 312.244,114.474 308.911,115.64 305.5,116.5C 303.779,110.726 301.779,105.06 299.5,99.5C 303.137,98.7365 306.47,97.4032 309.5,95.5 Z"/></g>
<g><path style="opacity:1" fill="#bb2629" d="M 274.5,111.5 C 275.675,111.281 276.675,111.614 277.5,112.5C 280.224,116.78 282.557,121.28 284.5,126C 278.32,130.336 271.987,134.503 265.5,138.5C 261.688,134.223 258.355,129.557 255.5,124.5C 261.577,119.75 267.91,115.417 274.5,111.5 Z"/></g>
<g><path style="opacity:1" fill="#bb2528" d="M 234.5,138.5 C 238.512,142.672 242.178,147.172 245.5,152C 240.346,157.651 234.679,162.817 228.5,167.5C 224.167,163.833 220.167,159.833 216.5,155.5C 221.916,149.08 227.916,143.413 234.5,138.5 Z"/></g>
<g><path style="opacity:1" fill="#676768" d="M 388.5,159.5 C 466.418,158.694 524.918,191.694 564,258.5C 591.876,317.166 591.209,375.5 562,433.5C 518.653,503.922 455.486,535.088 372.5,527C 295.908,511.741 245.741,466.908 222,392.5C 204.471,312.074 227.638,246.241 291.5,195C 320.672,174.333 353.006,162.5 388.5,159.5 Z"/></g>
<g><path style="opacity:1" fill="#bb2529" d="M 198.5,173.5 C 203.467,177.132 208.133,181.132 212.5,185.5C 207.477,191.355 202.644,197.355 198,203.5C 193.155,200.306 188.655,196.806 184.5,193C 188.983,186.353 193.65,179.853 198.5,173.5 Z"/></g>
<g><path style="opacity:1" fill="#b1b1b2" d="M 389.5,182.5 C 390.499,232.997 390.832,283.664 390.5,334.5C 368.167,334.5 345.833,334.5 323.5,334.5C 323.198,331.941 323.532,329.607 324.5,327.5C 324.5,329.5 324.5,331.5 324.5,333.5C 346.167,333.5 367.833,333.5 389.5,333.5C 389.5,283.167 389.5,232.833 389.5,182.5 Z"/></g>
<g><path style="opacity:1" fill="#fefefe" d="M 389.5,182.5 C 389.5,232.833 389.5,283.167 389.5,333.5C 367.833,333.5 346.167,333.5 324.5,333.5C 324.5,331.5 324.5,329.5 324.5,327.5C 325.117,287.363 334.95,249.696 354,214.5C 360.033,204.13 367.867,195.296 377.5,188C 381.194,185.491 385.194,183.658 389.5,182.5 Z"/></g>
<g><path style="opacity:1" fill="#fcfcfc" d="M 410.5,182.5 C 420.199,185.436 428.365,190.769 435,198.5C 448.053,214.935 457.72,233.268 464,253.5C 472.106,279.895 476.273,306.895 476.5,334.5C 454.5,334.5 432.5,334.5 410.5,334.5C 410.5,283.833 410.5,233.167 410.5,182.5 Z"/></g>
<g><path style="opacity:1" fill="#fefefe" d="M 303.5,333.5 C 281.5,333.5 259.5,333.5 237.5,333.5C 237.5,331.833 237.5,330.167 237.5,328.5C 244.098,273.761 270.765,231.928 317.5,203C 326.077,198.254 334.91,194.087 344,190.5C 344.5,190.667 345,190.833 345.5,191C 330.465,212.06 319.631,235.227 313,260.5C 306.8,284.437 303.633,308.77 303.5,333.5 Z"/></g>
<g><path style="opacity:1" fill="#fdfdfd" d="M 454.5,189.5 C 520.099,215.774 556.432,264.107 563.5,334.5C 541.5,334.5 519.5,334.5 497.5,334.5C 497.051,293.71 488.551,254.71 472,217.5C 466.896,207.606 461.062,198.273 454.5,189.5 Z"/></g>
<g><path style="opacity:1" fill="#bb2629" d="M 169.5,214.5 C 175.302,216.9 180.635,220.067 185.5,224C 181.937,230.963 178.27,237.797 174.5,244.5C 169.984,242.076 165.317,239.91 160.5,238C 159.978,237.439 159.645,236.772 159.5,236C 162.982,228.872 166.315,221.705 169.5,214.5 Z"/></g>
<g><path style="opacity:1" fill="#bb2528" d="M 149.5,260.5 C 155.097,262.365 160.763,264.032 166.5,265.5C 164.758,273.389 162.425,281.055 159.5,288.5C 154.477,287.494 149.477,286.328 144.5,285C 143.978,284.439 143.645,283.772 143.5,283C 145.2,275.402 147.2,267.902 149.5,260.5 Z"/></g>
<g><path style="opacity:1" fill="#bb2528" d="M 138.5,309.5 C 144.51,310.094 150.51,310.76 156.5,311.5C 155.422,319.128 154.755,326.794 154.5,334.5C 148.5,334.5 142.5,334.5 136.5,334.5C 136.755,326.131 137.421,317.798 138.5,309.5 Z"/></g>
<g><path style="opacity:1" fill="#afafb0" d="M 237.5,328.5 C 237.5,330.167 237.5,331.833 237.5,333.5C 259.5,333.5 281.5,333.5 303.5,333.5C 281.34,334.497 259.006,334.831 236.5,334.5C 236.205,332.265 236.539,330.265 237.5,328.5 Z"/></g>
<g><path style="opacity:1" fill="#d88285" d="M 646.5,344.5 C 652.31,343.51 658.31,343.177 664.5,343.5C 664.818,348.032 664.485,352.366 663.5,356.5C 663.5,352.5 663.5,348.5 663.5,344.5C 657.833,344.5 652.167,344.5 646.5,344.5 Z"/></g>
<g><path style="opacity:1" fill="#e9b6b8" d="M 646.5,344.5 C 646.5,348.167 646.5,351.833 646.5,355.5C 648.099,355.232 649.432,355.566 650.5,356.5C 648.833,356.5 647.167,356.5 645.5,356.5C 645.183,352.298 645.517,348.298 646.5,344.5 Z"/></g>
<g><path style="opacity:1" fill="#ba2226" d="M 646.5,344.5 C 652.167,344.5 657.833,344.5 663.5,344.5C 663.5,348.5 663.5,352.5 663.5,356.5C 659.167,356.5 654.833,356.5 650.5,356.5C 649.432,355.566 648.099,355.232 646.5,355.5C 646.5,351.833 646.5,348.167 646.5,344.5 Z"/></g>
<g><path style="opacity:1" fill="#fdfdfd" d="M 237.5,354.5 C 259.5,354.5 281.5,354.5 303.5,354.5C 303.443,399.817 313.943,442.484 335,482.5C 338.468,487.934 342.301,493.101 346.5,498C 299.847,481.687 267.014,450.521 248,404.5C 241.601,388.441 238.101,371.774 237.5,354.5 Z"/></g>
<g><path style="opacity:1" fill="#fefefe" d="M 389.5,354.5 C 389.832,405.003 389.499,455.336 388.5,505.5C 380.795,502.644 373.961,498.311 368,492.5C 358.36,481.84 350.694,469.84 345,456.5C 331.69,423.95 324.523,390.116 323.5,355C 345.497,354.5 367.497,354.333 389.5,354.5 Z"/></g>
<g><path style="opacity:1" fill="#b1b1b2" d="M 389.5,354.5 C 390.831,405.002 390.831,455.668 389.5,506.5C 388.893,506.376 388.56,506.043 388.5,505.5C 389.499,455.336 389.832,405.003 389.5,354.5 Z"/></g>
<g><path style="opacity:1" fill="#d8d8d8" d="M 411.5,354.5 C 411.168,405.003 411.501,455.336 412.5,505.5C 412.44,506.043 412.107,506.376 411.5,506.5C 410.169,455.668 410.169,405.002 411.5,354.5 Z"/></g>
<g><path style="opacity:1" fill="#fefefe" d="M 411.5,354.5 C 433.167,354.5 454.833,354.5 476.5,354.5C 475.963,395.746 466.463,434.746 448,471.5C 439.876,486.793 428.042,498.126 412.5,505.5C 411.501,455.336 411.168,405.003 411.5,354.5 Z"/></g>
<g><path style="opacity:1" fill="#fefefe" d="M 497.5,354.5 C 519.5,354.5 541.5,354.5 563.5,354.5C 558.426,413.025 530.76,457.192 480.5,487C 472.183,491.834 463.517,495.501 454.5,498C 470.353,476.456 481.52,452.623 488,426.5C 493.924,402.867 497.09,378.867 497.5,354.5 Z"/></g>
<g><path style="opacity:1" fill="#ba2226" d="M 144.5,358.5 C 147.833,358.5 151.167,358.5 154.5,358.5C 155.365,366.147 156.031,373.814 156.5,381.5C 150.827,382.755 145.16,383.088 139.5,382.5C 138.323,376.572 137.656,370.572 137.5,364.5C 137.5,362.833 137.5,361.167 137.5,359.5C 140.059,359.802 142.393,359.468 144.5,358.5 Z"/></g>
<g><path style="opacity:1" fill="#d36f71" d="M 144.5,358.5 C 142.393,359.468 140.059,359.802 137.5,359.5C 137.5,361.167 137.5,362.833 137.5,364.5C 136.539,362.735 136.205,360.735 136.5,358.5C 139.167,358.5 141.833,358.5 144.5,358.5 Z"/></g>
<g><path style="opacity:1" fill="#bb2528" d="M 643.5,379.5 C 649.511,380.073 655.511,380.74 661.5,381.5C 659.909,389.79 658.576,398.123 657.5,406.5C 651.5,405.167 645.5,403.833 639.5,402.5C 641.369,394.955 642.702,387.288 643.5,379.5 Z"/></g>
<g><path style="opacity:1" fill="#bc282a" d="M 157.5,404.5 C 159.167,404.5 160.833,404.5 162.5,404.5C 164.091,412.273 166.091,419.939 168.5,427.5C 163,428.543 157.667,430.21 152.5,432.5C 149.248,425.413 146.581,418.08 144.5,410.5C 144.608,409.558 144.941,408.725 145.5,408C 149.709,407.119 153.709,405.953 157.5,404.5 Z"/></g>
<g><path style="opacity:1" fill="#bb2528" d="M 632.5,424.5 C 638.097,426.365 643.763,428.032 649.5,429.5C 647.031,437.574 644.364,445.574 641.5,453.5C 635.408,451.619 629.741,448.953 624.5,445.5C 627.57,438.621 630.236,431.621 632.5,424.5 Z"/></g>
<g><path style="opacity:1" fill="#bb2528" d="M 175.5,448.5 C 176.496,448.414 177.329,448.748 178,449.5C 181.047,455.761 184.213,461.927 187.5,468C 183.444,471.877 178.777,475.044 173.5,477.5C 168.743,470.992 164.743,463.992 161.5,456.5C 165.901,453.302 170.567,450.635 175.5,448.5 Z"/></g>
<g><path style="opacity:1" fill="#bb2529" d="M 613.5,466.5 C 618.947,469.44 624.28,472.607 629.5,476C 625.387,483.268 620.72,490.101 615.5,496.5C 610.531,493.522 605.865,490.189 601.5,486.5C 605.925,480.078 609.925,473.411 613.5,466.5 Z"/></g>
<g><path style="opacity:1" fill="#bb2629" d="M 199.5,488.5 C 200.496,488.414 201.329,488.748 202,489.5C 206.31,495.311 210.81,500.977 215.5,506.5C 211.174,510.657 206.674,514.657 202,518.5C 196.232,512.455 191.065,505.955 186.5,499C 191.269,495.96 195.603,492.46 199.5,488.5 Z"/></g>
<g><path style="opacity:1" fill="#ba2327" d="M 585.5,505.5 C 586.552,505.351 587.552,505.517 588.5,506C 592.465,509.46 596.132,513.126 599.5,517C 594.363,523.304 588.696,529.137 582.5,534.5C 578.682,530.182 574.682,526.015 570.5,522C 576.076,516.929 581.076,511.429 585.5,505.5 Z"/></g>
<g><path style="opacity:1" fill="#bb2528" d="M 231.5,523.5 C 237.628,528.457 243.628,533.624 249.5,539C 246.182,543.815 242.515,548.315 238.5,552.5C 231.556,547.889 225.222,542.555 219.5,536.5C 223.522,532.146 227.522,527.813 231.5,523.5 Z"/></g>
<g><path style="opacity:1" fill="#bb2529" d="M 551.5,537.5 C 553.371,537.859 554.871,538.859 556,540.5C 558.874,543.753 561.374,547.253 563.5,551C 557.621,556.29 551.288,561.124 544.5,565.5C 540.688,561.223 537.355,556.557 534.5,551.5C 540.186,546.81 545.853,542.143 551.5,537.5 Z"/></g>
<g><path style="opacity:1" fill="#bb2529" d="M 267.5,552.5 C 274.926,555.714 281.926,559.714 288.5,564.5C 286.088,569.659 283.421,574.659 280.5,579.5C 273.141,575.825 266.141,571.658 259.5,567C 262.057,562.048 264.724,557.215 267.5,552.5 Z"/></g>
<g><path style="opacity:1" fill="#bb2529" d="M 512.5,562.5 C 513.376,562.369 514.043,562.702 514.5,563.5C 516.079,566.994 517.913,570.327 520,573.5C 521.187,575.044 521.52,576.711 521,578.5C 513.926,582.787 506.426,586.12 498.5,588.5C 497.192,583.077 495.192,577.911 492.5,573C 499.354,569.741 506.021,566.241 512.5,562.5 Z"/></g>
<g><path style="opacity:1" fill="#bb2629" d="M 309.5,573.5 C 317.291,575.764 324.958,578.431 332.5,581.5C 330.679,586.452 329.012,591.452 327.5,596.5C 319.042,596.242 311.042,593.908 303.5,589.5C 305.703,584.221 307.703,578.887 309.5,573.5 Z"/></g>
<g><path style="opacity:1" fill="#bb2629" d="M 466.5,580.5 C 468.167,580.5 469.833,580.5 471.5,580.5C 472.836,586.173 474.169,591.839 475.5,597.5C 467.624,599.427 459.791,601.427 452,603.5C 449.913,597.591 449.08,591.591 449.5,585.5C 455.436,584.358 461.103,582.691 466.5,580.5 Z"/></g>
<g><path style="opacity:1" fill="#bc2729" d="M 377.5,602.5 C 376.566,603.568 376.232,604.901 376.5,606.5C 375.5,606.5 374.5,606.5 373.5,606.5C 366.154,606.535 358.987,605.535 352,603.5C 352.648,597.878 353.482,592.211 354.5,586.5C 362.189,587.419 369.856,588.419 377.5,589.5C 377.818,593.734 377.818,598.067 377.5,602.5 Z"/></g>
<g><path style="opacity:1" fill="#bb2528" d="M 413.5,589.5 C 417.5,589.5 421.5,589.5 425.5,589.5C 425.833,595.5 426.167,601.5 426.5,607.5C 418.146,607.427 409.812,607.76 401.5,608.5C 401.5,602.5 401.5,596.5 401.5,590.5C 405.702,590.817 409.702,590.483 413.5,589.5 Z"/></g>
<g><path style="opacity:1" fill="#e6aaac" d="M 377.5,602.5 C 377.5,604.167 377.5,605.833 377.5,607.5C 375.901,607.768 374.568,607.434 373.5,606.5C 374.5,606.5 375.5,606.5 376.5,606.5C 376.232,604.901 376.566,603.568 377.5,602.5 Z"/></g>
</svg>
